<svg width="360" height="360" viewBox="0 0 360 360" fill="none" xmlns="http://www.w3.org/2000/svg">
<g clip-path="url(#clip0_30_806)">
<rect width="360" height="360" fill="url(#paint0_linear_30_806)"/>
<g filter="url(#filter0_b_30_806)">
<rect width="360" height="360" fill="white" fill-opacity="0.03"/>
</g>
<g filter="url(#filter1_d_30_806)">
<path d="M140.583 179.458C140.583 180.011 140.364 180.541 139.973 180.931C139.582 181.322 139.052 181.542 138.5 181.542C137.947 181.542 137.417 181.322 137.027 180.931C136.636 180.541 136.417 180.011 136.417 179.458C136.417 178.353 136.856 177.293 137.637 176.512C138.418 175.731 139.478 175.292 140.583 175.292C141.688 175.292 142.748 175.731 143.53 176.512C144.311 177.293 144.75 178.353 144.75 179.458C144.75 181.116 144.091 182.706 142.919 183.878C141.747 185.05 140.158 185.708 138.5 185.708C136.842 185.708 135.253 185.05 134.081 183.878C132.908 182.706 132.25 181.116 132.25 179.458C132.25 177.248 133.128 175.129 134.691 173.566C136.254 172.003 138.373 171.125 140.583 171.125C142.793 171.125 144.913 172.003 146.476 173.566C148.039 175.129 148.917 177.248 148.917 179.458C148.917 182.221 147.819 184.87 145.866 186.824C143.912 188.777 141.263 189.875 138.5 189.875C135.737 189.875 133.088 188.777 131.134 186.824C129.181 184.87 128.083 182.221 128.083 179.458C128.079 176.743 128.965 174.102 130.604 171.937C130.764 171.702 130.97 171.502 131.21 171.349C131.45 171.196 131.718 171.094 131.999 171.049C132.28 171.005 132.567 171.018 132.843 171.088C133.118 171.158 133.377 171.284 133.602 171.458C133.827 171.631 134.014 171.85 134.152 172.098C134.289 172.347 134.374 172.622 134.402 172.905C134.43 173.188 134.399 173.474 134.312 173.744C134.225 174.015 134.083 174.265 133.896 174.479" stroke="white" stroke-width="2" stroke-linecap="round" stroke-linejoin="round"/>
<path d="M169.297 174.913C169.183 173.905 168.714 173.124 167.891 172.57C167.067 172.009 166.03 171.728 164.78 171.728C163.885 171.728 163.111 171.87 162.457 172.154C161.804 172.431 161.296 172.815 160.934 173.305C160.579 173.788 160.401 174.338 160.401 174.956C160.401 175.474 160.522 175.922 160.763 176.298C161.012 176.675 161.335 176.991 161.733 177.246C162.138 177.495 162.571 177.705 163.033 177.875C163.494 178.038 163.938 178.173 164.364 178.28L166.495 178.834C167.191 179.004 167.905 179.235 168.636 179.526C169.368 179.817 170.046 180.201 170.671 180.677C171.296 181.153 171.8 181.742 172.184 182.445C172.575 183.148 172.77 183.99 172.77 184.97C172.77 186.206 172.45 187.303 171.811 188.262C171.179 189.221 170.259 189.977 169.052 190.531C167.852 191.085 166.399 191.362 164.695 191.362C163.061 191.362 161.648 191.103 160.455 190.585C159.261 190.066 158.327 189.331 157.653 188.379C156.978 187.42 156.605 186.284 156.534 184.97H159.837C159.901 185.759 160.156 186.415 160.604 186.941C161.058 187.46 161.637 187.847 162.34 188.102C163.05 188.351 163.828 188.475 164.673 188.475C165.604 188.475 166.431 188.33 167.156 188.038C167.887 187.74 168.462 187.328 168.881 186.803C169.3 186.27 169.51 185.648 169.51 184.938C169.51 184.292 169.325 183.763 168.956 183.351C168.594 182.939 168.1 182.598 167.475 182.328C166.857 182.058 166.158 181.82 165.376 181.614L162.798 180.911C161.051 180.435 159.666 179.736 158.643 178.812C157.628 177.889 157.12 176.668 157.12 175.148C157.12 173.891 157.461 172.793 158.143 171.856C158.825 170.918 159.748 170.19 160.913 169.672C162.077 169.146 163.391 168.884 164.854 168.884C166.332 168.884 167.635 169.143 168.764 169.661C169.901 170.18 170.795 170.893 171.449 171.803C172.102 172.705 172.443 173.741 172.472 174.913H169.297ZM179.633 181.284V191H176.448V169.182H179.591V177.3H179.793C180.177 176.419 180.763 175.719 181.551 175.201C182.339 174.683 183.369 174.423 184.64 174.423C185.763 174.423 186.743 174.654 187.581 175.116C188.426 175.577 189.079 176.266 189.541 177.183C190.01 178.092 190.244 179.228 190.244 180.592V191H187.059V180.975C187.059 179.775 186.75 178.844 186.132 178.184C185.514 177.516 184.655 177.183 183.554 177.183C182.801 177.183 182.126 177.342 181.53 177.662C180.94 177.982 180.475 178.45 180.134 179.068C179.8 179.679 179.633 180.418 179.633 181.284ZM195.474 171.74C196.174 171.8 196.784 171.99 197.304 172.31C197.824 172.61 198.084 173.07 198.084 173.69C198.084 174.15 197.864 174.52 197.424 174.8C197.004 175.06 196.494 175.19 195.894 175.19C195.314 175.19 194.914 175.04 194.694 174.74C194.474 174.44 194.364 174.13 194.364 173.81C194.364 173.21 194.424 172.71 194.544 172.31C194.684 171.91 194.994 171.72 195.474 171.74ZM197.874 185.03V185.9C197.874 186.68 197.894 187.42 197.934 188.12C197.994 188.8 198.064 189.49 198.144 190.19C198.124 190.39 197.974 190.6 197.694 190.82C197.414 191.02 197.164 191.12 196.944 191.12C196.564 191.12 196.174 191.05 195.774 190.91C195.394 190.75 195.164 190.56 195.084 190.34C194.964 189.7 194.904 189.13 194.904 188.63C194.904 186.99 194.854 185.15 194.754 183.11C194.674 181.31 194.634 180.05 194.634 179.33C194.634 178.97 194.814 178.66 195.174 178.4C195.534 178.14 195.914 178.01 196.314 178.01C196.894 178.01 197.294 178.14 197.514 178.4C197.754 178.66 197.874 179.07 197.874 179.63V185.03ZM205.1 185.45L205.079 181.561H205.633L212.153 174.636H215.967L208.531 182.52H208.03L205.1 185.45ZM202.171 191V169.182H205.356V191H202.171ZM212.504 191L206.645 183.223L208.84 180.996L216.414 191H212.504ZM223.632 191.362C222.595 191.362 221.657 191.17 220.819 190.787C219.981 190.396 219.317 189.832 218.827 189.093C218.344 188.354 218.103 187.449 218.103 186.376C218.103 185.453 218.28 184.693 218.635 184.097C218.991 183.5 219.47 183.028 220.074 182.68C220.677 182.332 221.352 182.069 222.098 181.891C222.844 181.714 223.604 181.579 224.378 181.487C225.358 181.373 226.153 181.281 226.764 181.21C227.375 181.131 227.819 181.007 228.096 180.837C228.373 180.666 228.511 180.389 228.511 180.006V179.931C228.511 179.001 228.248 178.28 227.723 177.768C227.204 177.257 226.43 177.001 225.4 177.001C224.328 177.001 223.483 177.239 222.865 177.715C222.254 178.184 221.831 178.706 221.597 179.281L218.604 178.599C218.959 177.605 219.477 176.803 220.159 176.192C220.848 175.574 221.64 175.126 222.535 174.849C223.43 174.565 224.371 174.423 225.358 174.423C226.011 174.423 226.704 174.501 227.435 174.658C228.174 174.807 228.863 175.084 229.502 175.489C230.148 175.893 230.677 176.472 231.089 177.225C231.501 177.971 231.707 178.94 231.707 180.134V191H228.596V188.763H228.469C228.263 189.175 227.954 189.58 227.542 189.977C227.13 190.375 226.601 190.705 225.954 190.968C225.308 191.231 224.534 191.362 223.632 191.362ZM224.324 188.805C225.205 188.805 225.958 188.631 226.583 188.283C227.215 187.935 227.694 187.481 228.021 186.92C228.355 186.352 228.522 185.744 228.522 185.098V182.989C228.408 183.102 228.188 183.209 227.861 183.308C227.542 183.401 227.176 183.482 226.764 183.553C226.352 183.617 225.951 183.678 225.56 183.734C225.17 183.784 224.843 183.827 224.58 183.862C223.962 183.94 223.398 184.072 222.886 184.256C222.382 184.441 221.977 184.707 221.672 185.055C221.373 185.396 221.224 185.851 221.224 186.419C221.224 187.207 221.515 187.804 222.098 188.209C222.68 188.607 223.422 188.805 224.324 188.805Z" fill="white"/>
</g>
<path d="M117.358 210.136C116.821 210.136 116.351 209.994 115.947 209.71C115.544 209.426 115.229 209.03 115.001 208.521C114.777 208.013 114.665 207.42 114.665 206.744C114.665 206.071 114.777 205.482 115.001 204.976C115.229 204.467 115.545 204.072 115.952 203.791C116.358 203.507 116.831 203.365 117.371 203.365C117.768 203.365 118.099 203.436 118.364 203.578C118.628 203.717 118.839 203.891 118.999 204.098C119.158 204.305 119.281 204.507 119.369 204.703H119.438V201.273H120.2V210H119.459V208.786H119.369C119.281 208.984 119.156 209.189 118.994 209.399C118.832 209.607 118.618 209.781 118.351 209.923C118.087 210.065 117.756 210.136 117.358 210.136ZM117.447 209.442C117.871 209.442 118.232 209.327 118.53 209.097C118.828 208.864 119.055 208.544 119.212 208.138C119.371 207.729 119.45 207.26 119.45 206.732C119.45 206.209 119.372 205.747 119.216 205.347C119.06 204.943 118.832 204.628 118.534 204.401C118.236 204.17 117.874 204.055 117.447 204.055C117.01 204.055 116.641 204.175 116.339 204.413C116.041 204.649 115.814 204.969 115.658 205.372C115.504 205.776 115.428 206.229 115.428 206.732C115.428 207.24 115.506 207.699 115.662 208.108C115.818 208.517 116.045 208.842 116.344 209.084C116.645 209.322 117.013 209.442 117.447 209.442ZM122.369 210V203.455H123.132V210H122.369ZM122.757 202.33C122.601 202.33 122.467 202.277 122.357 202.172C122.246 202.064 122.19 201.935 122.19 201.784C122.19 201.634 122.246 201.506 122.357 201.401C122.467 201.293 122.601 201.239 122.757 201.239C122.913 201.239 123.047 201.293 123.158 201.401C123.268 201.506 123.324 201.634 123.324 201.784C123.324 201.935 123.268 202.064 123.158 202.172C123.047 202.277 122.913 202.33 122.757 202.33ZM127.635 212.591C127.189 212.591 126.799 212.533 126.463 212.416C126.128 212.303 125.846 212.146 125.615 211.947C125.385 211.749 125.206 211.526 125.078 211.278L125.701 210.869C125.794 211.034 125.919 211.196 126.076 211.355C126.235 211.514 126.441 211.646 126.694 211.751C126.949 211.857 127.263 211.909 127.635 211.909C128.215 211.909 128.682 211.764 129.037 211.474C129.395 211.185 129.574 210.734 129.574 210.124V208.649H129.506C129.418 208.848 129.292 209.047 129.127 209.246C128.962 209.442 128.746 209.605 128.479 209.736C128.215 209.866 127.887 209.932 127.495 209.932C126.972 209.932 126.507 209.803 126.101 209.544C125.698 209.286 125.38 208.916 125.147 208.436C124.917 207.953 124.801 207.378 124.801 206.71C124.801 206.048 124.914 205.466 125.138 204.963C125.365 204.46 125.682 204.068 126.088 203.787C126.495 203.506 126.968 203.365 127.507 203.365C127.908 203.365 128.24 203.436 128.505 203.578C128.769 203.717 128.98 203.891 129.14 204.098C129.301 204.305 129.428 204.507 129.519 204.703H129.596V203.455H130.337V210.17C130.337 210.724 130.219 211.18 129.983 211.538C129.748 211.896 129.426 212.161 129.02 212.331C128.614 212.504 128.152 212.591 127.635 212.591ZM127.584 209.237C128.005 209.237 128.364 209.136 128.662 208.935C128.961 208.73 129.189 208.437 129.348 208.057C129.507 207.676 129.587 207.223 129.587 206.697C129.587 206.186 129.509 205.733 129.353 205.338C129.196 204.94 128.969 204.628 128.671 204.401C128.375 204.17 128.013 204.055 127.584 204.055C127.147 204.055 126.777 204.173 126.476 204.409C126.175 204.645 125.948 204.963 125.794 205.364C125.641 205.761 125.564 206.206 125.564 206.697C125.564 207.197 125.642 207.639 125.799 208.023C125.955 208.403 126.184 208.702 126.485 208.918C126.786 209.131 127.152 209.237 127.584 209.237ZM132.354 210V203.455H133.116V210H132.354ZM132.741 202.33C132.585 202.33 132.452 202.277 132.341 202.172C132.23 202.064 132.175 201.935 132.175 201.784C132.175 201.634 132.23 201.506 132.341 201.401C132.452 201.293 132.585 201.239 132.741 201.239C132.898 201.239 133.031 201.293 133.142 201.401C133.253 201.506 133.308 201.634 133.308 201.784C133.308 201.935 133.253 202.064 133.142 202.172C133.031 202.277 132.898 202.33 132.741 202.33ZM137.701 203.455V204.115H134.577V203.455H137.701ZM135.553 201.886H136.316V208.291C136.316 208.564 136.363 208.778 136.456 208.935C136.55 209.088 136.672 209.197 136.823 209.263C136.973 209.325 137.134 209.357 137.304 209.357C137.404 209.357 137.489 209.351 137.56 209.339C137.631 209.325 137.694 209.311 137.748 209.297L137.909 209.983C137.836 210.011 137.745 210.037 137.637 210.06C137.529 210.085 137.395 210.098 137.236 210.098C136.958 210.098 136.689 210.037 136.431 209.915C136.175 209.793 135.965 209.611 135.8 209.369C135.635 209.128 135.553 208.828 135.553 208.47V201.886ZM139.432 210V203.455H140.195V210H139.432ZM139.82 202.33C139.663 202.33 139.53 202.277 139.419 202.172C139.308 202.064 139.253 201.935 139.253 201.784C139.253 201.634 139.308 201.506 139.419 201.401C139.53 201.293 139.663 201.239 139.82 201.239C139.976 201.239 140.109 201.293 140.22 201.401C140.331 201.506 140.386 201.634 140.386 201.784C140.386 201.935 140.331 202.064 140.22 202.172C140.109 202.277 139.976 202.33 139.82 202.33ZM141.996 210V209.399L145.78 204.226V204.17H142.158V203.455H146.756V204.081L143.04 209.229V209.284H146.892V210H141.996ZM148.572 210V203.455H149.335V210H148.572ZM148.96 202.33C148.804 202.33 148.67 202.277 148.56 202.172C148.449 202.064 148.393 201.935 148.393 201.784C148.393 201.634 148.449 201.506 148.56 201.401C148.67 201.293 148.804 201.239 148.96 201.239C149.116 201.239 149.25 201.293 149.361 201.401C149.472 201.506 149.527 201.634 149.527 201.784C149.527 201.935 149.472 202.064 149.361 202.172C149.25 202.277 149.116 202.33 148.96 202.33ZM152.1 205.909V210H151.341V203.455H152.078V204.482H152.147C152.3 204.146 152.539 203.878 152.863 203.676C153.189 203.472 153.593 203.369 154.073 203.369C154.513 203.369 154.9 203.462 155.232 203.646C155.567 203.828 155.827 204.097 156.012 204.452C156.199 204.807 156.293 205.243 156.293 205.76V210H155.534V205.807C155.534 205.27 155.384 204.845 155.083 204.533C154.784 204.22 154.384 204.064 153.881 204.064C153.537 204.064 153.232 204.138 152.965 204.286C152.698 204.433 152.486 204.646 152.33 204.925C152.176 205.2 152.1 205.528 152.1 205.909ZM160.788 212.591C160.342 212.591 159.951 212.533 159.616 212.416C159.281 212.303 158.998 212.146 158.768 211.947C158.538 211.749 158.359 211.526 158.231 211.278L158.853 210.869C158.947 211.034 159.072 211.196 159.228 211.355C159.387 211.514 159.593 211.646 159.846 211.751C160.102 211.857 160.415 211.909 160.788 211.909C161.367 211.909 161.835 211.764 162.19 211.474C162.548 211.185 162.727 210.734 162.727 210.124V208.649H162.658C162.57 208.848 162.444 209.047 162.279 209.246C162.114 209.442 161.898 209.605 161.631 209.736C161.367 209.866 161.039 209.932 160.647 209.932C160.124 209.932 159.66 209.803 159.254 209.544C158.85 209.286 158.532 208.916 158.299 208.436C158.069 207.953 157.954 207.378 157.954 206.71C157.954 206.048 158.066 205.466 158.29 204.963C158.518 204.46 158.835 204.068 159.241 203.787C159.647 203.506 160.12 203.365 160.66 203.365C161.06 203.365 161.393 203.436 161.657 203.578C161.921 203.717 162.133 203.891 162.292 204.098C162.454 204.305 162.58 204.507 162.671 204.703H162.748V203.455H163.489V210.17C163.489 210.724 163.371 211.18 163.136 211.538C162.9 211.896 162.579 212.161 162.173 212.331C161.766 212.504 161.305 212.591 160.788 212.591ZM160.737 209.237C161.157 209.237 161.516 209.136 161.815 208.935C162.113 208.73 162.342 208.437 162.501 208.057C162.66 207.676 162.739 207.223 162.739 206.697C162.739 206.186 162.661 205.733 162.505 205.338C162.349 204.94 162.121 204.628 161.823 204.401C161.528 204.17 161.165 204.055 160.737 204.055C160.299 204.055 159.93 204.173 159.629 204.409C159.327 204.645 159.1 204.963 158.947 205.364C158.793 205.761 158.717 206.206 158.717 206.697C158.717 207.197 158.795 207.639 158.951 208.023C159.107 208.403 159.336 208.702 159.637 208.918C159.938 209.131 160.305 209.237 160.737 209.237ZM171.37 212.591C170.924 212.591 170.533 212.533 170.198 212.416C169.863 212.303 169.58 212.146 169.35 211.947C169.12 211.749 168.941 211.526 168.813 211.278L169.435 210.869C169.529 211.034 169.654 211.196 169.81 211.355C169.969 211.514 170.175 211.646 170.428 211.751C170.684 211.857 170.998 211.909 171.37 211.909C171.949 211.909 172.417 211.764 172.772 211.474C173.13 211.185 173.309 210.734 173.309 210.124V208.649H173.24C173.152 208.848 173.026 209.047 172.861 209.246C172.696 209.442 172.48 209.605 172.213 209.736C171.949 209.866 171.621 209.932 171.229 209.932C170.706 209.932 170.242 209.803 169.836 209.544C169.432 209.286 169.114 208.916 168.881 208.436C168.651 207.953 168.536 207.378 168.536 206.71C168.536 206.048 168.648 205.466 168.873 204.963C169.1 204.46 169.417 204.068 169.823 203.787C170.229 203.506 170.702 203.365 171.242 203.365C171.642 203.365 171.975 203.436 172.239 203.578C172.503 203.717 172.715 203.891 172.874 204.098C173.036 204.305 173.162 204.507 173.253 204.703H173.33V203.455H174.071V210.17C174.071 210.724 173.953 211.18 173.718 211.538C173.482 211.896 173.161 212.161 172.755 212.331C172.348 212.504 171.887 212.591 171.37 212.591ZM171.319 209.237C171.739 209.237 172.098 209.136 172.397 208.935C172.695 208.73 172.924 208.437 173.083 208.057C173.242 207.676 173.321 207.223 173.321 206.697C173.321 206.186 173.243 205.733 173.087 205.338C172.931 204.94 172.703 204.628 172.405 204.401C172.11 204.17 171.748 204.055 171.319 204.055C170.881 204.055 170.512 204.173 170.211 204.409C169.909 204.645 169.682 204.963 169.529 205.364C169.375 205.761 169.299 206.206 169.299 206.697C169.299 207.197 169.377 207.639 169.533 208.023C169.689 208.403 169.918 208.702 170.219 208.918C170.52 209.131 170.887 209.237 171.319 209.237ZM176.08 210V203.455H176.817V204.46H176.872C177.003 204.131 177.23 203.865 177.554 203.663C177.881 203.459 178.25 203.357 178.662 203.357C178.724 203.357 178.794 203.358 178.871 203.361C178.947 203.364 179.011 203.366 179.062 203.369V204.141C179.028 204.135 178.969 204.126 178.884 204.115C178.798 204.104 178.706 204.098 178.607 204.098C178.266 204.098 177.962 204.17 177.695 204.315C177.43 204.457 177.222 204.655 177.068 204.908C176.915 205.161 176.838 205.449 176.838 205.773V210H176.08ZM182.702 210.136C182.136 210.136 181.636 209.993 181.202 209.706C180.77 209.419 180.432 209.023 180.188 208.517C179.943 208.009 179.821 207.422 179.821 206.757C179.821 206.087 179.943 205.497 180.188 204.989C180.432 204.477 180.77 204.08 181.202 203.795C181.636 203.509 182.136 203.365 182.702 203.365C183.267 203.365 183.766 203.509 184.197 203.795C184.629 204.082 184.967 204.48 185.212 204.989C185.459 205.497 185.582 206.087 185.582 206.757C185.582 207.422 185.46 208.009 185.216 208.517C184.972 209.023 184.632 209.419 184.197 209.706C183.766 209.993 183.267 210.136 182.702 210.136ZM182.702 209.442C183.156 209.442 183.541 209.32 183.857 209.075C184.172 208.831 184.411 208.506 184.572 208.099C184.737 207.693 184.82 207.246 184.82 206.757C184.82 206.268 184.737 205.82 184.572 205.411C184.411 205.001 184.172 204.673 183.857 204.426C183.541 204.179 183.156 204.055 182.702 204.055C182.25 204.055 181.865 204.179 181.547 204.426C181.232 204.673 180.991 205.001 180.827 205.411C180.665 205.82 180.584 206.268 180.584 206.757C180.584 207.246 180.665 207.693 180.827 208.099C180.991 208.506 181.232 208.831 181.547 209.075C181.862 209.32 182.247 209.442 182.702 209.442ZM191.407 207.499V203.455H192.165V210H191.407V208.913H191.347C191.194 209.249 190.951 209.528 190.618 209.753C190.286 209.974 189.88 210.085 189.4 210.085C188.982 210.085 188.611 209.994 188.287 209.812C187.963 209.628 187.709 209.358 187.525 209.003C187.34 208.648 187.248 208.212 187.248 207.695V203.455H188.006V207.648C188.006 208.159 188.157 208.571 188.458 208.884C188.759 209.193 189.145 209.348 189.617 209.348C189.912 209.348 190.196 209.277 190.469 209.135C190.742 208.993 190.966 208.786 191.142 208.513C191.319 208.237 191.407 207.899 191.407 207.499ZM194.173 212.455V203.455H194.911V204.703H195C195.091 204.507 195.216 204.307 195.375 204.102C195.534 203.895 195.744 203.72 196.006 203.578C196.27 203.436 196.602 203.365 197.003 203.365C197.543 203.365 198.014 203.507 198.418 203.791C198.824 204.072 199.139 204.467 199.364 204.976C199.591 205.482 199.705 206.071 199.705 206.744C199.705 207.42 199.591 208.013 199.364 208.521C199.139 209.03 198.824 209.426 198.418 209.71C198.014 209.994 197.545 210.136 197.011 210.136C196.616 210.136 196.286 210.065 196.018 209.923C195.754 209.781 195.54 209.607 195.375 209.399C195.213 209.189 195.088 208.984 195 208.786H194.932V212.455H194.173ZM194.923 206.732C194.923 207.26 195.001 207.729 195.158 208.138C195.317 208.544 195.544 208.864 195.839 209.097C196.138 209.327 196.499 209.442 196.922 209.442C197.357 209.442 197.723 209.322 198.021 209.084C198.322 208.842 198.551 208.517 198.707 208.108C198.866 207.699 198.946 207.24 198.946 206.732C198.946 206.229 198.868 205.776 198.712 205.372C198.558 204.969 198.331 204.649 198.03 204.413C197.729 204.175 197.359 204.055 196.922 204.055C196.496 204.055 196.134 204.17 195.835 204.401C195.537 204.628 195.31 204.943 195.153 205.347C195 205.747 194.923 206.209 194.923 206.732ZM205.502 201.273V210H204.744V201.273H205.502ZM210.156 210.136C209.545 210.136 209.016 209.994 208.57 209.71C208.124 209.423 207.779 209.027 207.535 208.521C207.293 208.013 207.173 207.428 207.173 206.766C207.173 206.107 207.293 205.521 207.535 205.01C207.779 204.496 208.116 204.094 208.545 203.804C208.977 203.511 209.475 203.365 210.04 203.365C210.396 203.365 210.738 203.43 211.067 203.561C211.397 203.689 211.692 203.886 211.954 204.153C212.218 204.418 212.427 204.751 212.58 205.155C212.734 205.555 212.81 206.03 212.81 206.578V206.953H207.697V206.284H212.035C212.035 205.864 211.95 205.486 211.779 205.151C211.612 204.812 211.377 204.545 211.076 204.349C210.778 204.153 210.433 204.055 210.04 204.055C209.626 204.055 209.261 204.166 208.945 204.388C208.63 204.609 208.383 204.902 208.204 205.266C208.028 205.629 207.938 206.027 207.935 206.459V206.859C207.935 207.379 208.025 207.834 208.204 208.223C208.386 208.609 208.643 208.909 208.975 209.122C209.308 209.335 209.701 209.442 210.156 209.442C210.465 209.442 210.737 209.393 210.969 209.297C211.205 209.2 211.403 209.071 211.562 208.909C211.724 208.744 211.846 208.564 211.928 208.368L212.648 208.602C212.549 208.878 212.386 209.132 212.158 209.365C211.934 209.598 211.653 209.786 211.315 209.928C210.979 210.067 210.593 210.136 210.156 210.136ZM215.24 205.909V210H214.482V203.455H215.219V204.482H215.287C215.441 204.146 215.679 203.878 216.003 203.676C216.33 203.472 216.733 203.369 217.213 203.369C217.654 203.369 218.04 203.462 218.373 203.646C218.708 203.828 218.968 204.097 219.152 204.452C219.34 204.807 219.434 205.243 219.434 205.76V210H218.675V205.807C218.675 205.27 218.525 204.845 218.223 204.533C217.925 204.22 217.525 204.064 217.022 204.064C216.678 204.064 216.373 204.138 216.105 204.286C215.838 204.433 215.627 204.646 215.471 204.925C215.317 205.2 215.24 205.528 215.24 205.909ZM223.788 210.136C223.251 210.136 222.781 209.994 222.377 209.71C221.974 209.426 221.658 209.03 221.431 208.521C221.207 208.013 221.094 207.42 221.094 206.744C221.094 206.071 221.207 205.482 221.431 204.976C221.658 204.467 221.975 204.072 222.381 203.791C222.788 203.507 223.261 203.365 223.8 203.365C224.198 203.365 224.529 203.436 224.793 203.578C225.058 203.717 225.269 203.891 225.428 204.098C225.587 204.305 225.711 204.507 225.799 204.703H225.867V201.273H226.63V210H225.888V208.786H225.799C225.711 208.984 225.586 209.189 225.424 209.399C225.262 209.607 225.048 209.781 224.781 209.923C224.516 210.065 224.185 210.136 223.788 210.136ZM223.877 209.442C224.3 209.442 224.661 209.327 224.96 209.097C225.258 208.864 225.485 208.544 225.641 208.138C225.8 207.729 225.88 207.26 225.88 206.732C225.88 206.209 225.802 205.747 225.646 205.347C225.489 204.943 225.262 204.628 224.964 204.401C224.665 204.17 224.303 204.055 223.877 204.055C223.44 204.055 223.07 204.175 222.769 204.413C222.471 204.649 222.244 204.969 222.087 205.372C221.934 205.776 221.857 206.229 221.857 206.732C221.857 207.24 221.935 207.699 222.092 208.108C222.248 208.517 222.475 208.842 222.773 209.084C223.075 209.322 223.442 209.442 223.877 209.442ZM228.799 210V203.455H229.562V210H228.799ZM229.187 202.33C229.031 202.33 228.897 202.277 228.786 202.172C228.675 202.064 228.62 201.935 228.62 201.784C228.62 201.634 228.675 201.506 228.786 201.401C228.897 201.293 229.031 201.239 229.187 201.239C229.343 201.239 229.477 201.293 229.587 201.401C229.698 201.506 229.754 201.634 229.754 201.784C229.754 201.935 229.698 202.064 229.587 202.172C229.477 202.277 229.343 202.33 229.187 202.33ZM232.326 205.909V210H231.568V203.455H232.305V204.482H232.373C232.527 204.146 232.765 203.878 233.089 203.676C233.416 203.472 233.819 203.369 234.299 203.369C234.74 203.369 235.126 203.462 235.458 203.646C235.794 203.828 236.054 204.097 236.238 204.452C236.426 204.807 236.52 205.243 236.52 205.76V210H235.761V205.807C235.761 205.27 235.61 204.845 235.309 204.533C235.011 204.22 234.61 204.064 234.108 204.064C233.764 204.064 233.458 204.138 233.191 204.286C232.924 204.433 232.713 204.646 232.556 204.925C232.403 205.2 232.326 205.528 232.326 205.909ZM241.014 212.591C240.568 212.591 240.178 212.533 239.842 212.416C239.507 212.303 239.224 212.146 238.994 211.947C238.764 211.749 238.585 211.526 238.457 211.278L239.08 210.869C239.173 211.034 239.298 211.196 239.455 211.355C239.614 211.514 239.82 211.646 240.072 211.751C240.328 211.857 240.642 211.909 241.014 211.909C241.594 211.909 242.061 211.764 242.416 211.474C242.774 211.185 242.953 210.734 242.953 210.124V208.649H242.885C242.797 208.848 242.67 209.047 242.506 209.246C242.341 209.442 242.125 209.605 241.858 209.736C241.594 209.866 241.266 209.932 240.874 209.932C240.351 209.932 239.886 209.803 239.48 209.544C239.077 209.286 238.759 208.916 238.526 208.436C238.295 207.953 238.18 207.378 238.18 206.71C238.18 206.048 238.293 205.466 238.517 204.963C238.744 204.46 239.061 204.068 239.467 203.787C239.874 203.506 240.347 203.365 240.886 203.365C241.287 203.365 241.619 203.436 241.884 203.578C242.148 203.717 242.359 203.891 242.518 204.098C242.68 204.305 242.807 204.507 242.898 204.703H242.974V203.455H243.716V210.17C243.716 210.724 243.598 211.18 243.362 211.538C243.126 211.896 242.805 212.161 242.399 212.331C241.993 212.504 241.531 212.591 241.014 212.591ZM240.963 209.237C241.384 209.237 241.743 209.136 242.041 208.935C242.339 208.73 242.568 208.437 242.727 208.057C242.886 207.676 242.966 207.223 242.966 206.697C242.966 206.186 242.888 205.733 242.732 205.338C242.575 204.94 242.348 204.628 242.05 204.401C241.754 204.17 241.392 204.055 240.963 204.055C240.526 204.055 240.156 204.173 239.855 204.409C239.554 204.645 239.327 204.963 239.173 205.364C239.02 205.761 238.943 206.206 238.943 206.697C238.943 207.197 239.021 207.639 239.178 208.023C239.334 208.403 239.563 208.702 239.864 208.918C240.165 209.131 240.531 209.237 240.963 209.237Z" fill="white" fill-opacity="0.8"/>
<path d="M29.4312 210.526C29.277 210.567 29.1114 210.566 28.9471 210.518C28.4779 210.378 28.2125 209.884 28.3531 209.415C29.4497 205.78 30.6796 202.66 32.1035 199.048C32.4399 198.196 32.7877 197.318 33.1434 196.401C33.3197 195.945 33.8334 195.721 34.2935 195.896C34.7493 196.072 34.974 196.585 34.7989 197.045C34.4431 197.962 34.0965 198.844 33.7558 199.697C32.3453 203.274 31.1287 206.358 30.0504 209.924C29.9576 210.229 29.7182 210.449 29.4312 210.526Z" fill="black" fill-opacity="0.7"/>
<path d="M34.5533 197.602C34.0907 197.726 33.6108 197.46 33.4729 196.997C33.3338 196.529 33.6009 196.035 34.0729 195.895C35.8379 195.372 39.1417 194.372 42.9677 193.213C50.7546 190.852 60.4444 187.916 63.6141 187.066C64.0852 186.94 64.574 187.222 64.7002 187.693C64.8264 188.164 64.5442 188.653 64.073 188.779C60.9333 189.62 51.2564 192.553 43.4812 194.907C39.6552 196.065 36.3483 197.071 34.5779 197.591C34.5693 197.593 34.5607 197.595 34.5564 197.597L34.5533 197.602Z" fill="black" fill-opacity="0.7"/>
<path d="M73.5687 196.804C73.3117 196.873 73.028 196.825 72.7982 196.652C71.3413 195.533 69.8456 194.217 68.2605 192.825C66.6742 191.428 65.0301 189.987 63.297 188.624C62.9134 188.323 62.8459 187.763 63.1471 187.38C63.4483 186.996 64.0087 186.928 64.3923 187.229C66.1657 188.622 67.8284 190.081 69.4333 191.496C70.9944 192.868 72.4715 194.165 73.8815 195.247C74.2694 195.547 74.3443 196.1 74.0443 196.488C73.9222 196.65 73.7529 196.755 73.5687 196.804Z" fill="black" fill-opacity="0.7"/>
<path d="M58.4238 228.297C58.2139 228.353 57.9791 228.334 57.7696 228.22C47.9304 222.871 38.8121 217.54 29.0723 211.448C28.6581 211.187 28.5307 210.643 28.7905 210.225C29.0514 209.811 29.5957 209.683 30.0141 209.943C39.7213 216.016 48.8113 221.327 58.6191 226.662C59.0489 226.895 59.2075 227.436 58.9738 227.865C58.8538 228.086 58.6508 228.236 58.4238 228.297Z" fill="black" fill-opacity="0.7"/>
<path d="M58.7794 228.271C58.5781 228.325 58.353 228.307 58.1524 228.209C57.7131 227.992 57.5374 227.456 57.756 227.021C62.8378 216.894 67.7827 206.565 72.4582 196.326C72.6605 195.882 73.1864 195.686 73.6351 195.887C74.0795 196.089 74.2755 196.615 74.0743 197.063C69.3906 207.322 64.4319 217.669 59.3419 227.817C59.2211 228.051 59.0162 228.212 58.7763 228.276L58.7794 228.271Z" fill="black" fill-opacity="0.7"/>
<path d="M29.7913 210.705C29.423 210.804 29.016 210.656 28.8049 210.313C28.5505 209.895 28.6801 209.35 29.0986 209.096C31.4101 207.683 59.9251 199.239 71.9271 196.023C72.3983 195.897 72.887 196.179 73.0132 196.65C73.1394 197.121 72.8572 197.61 72.386 197.736C60.1656 201.01 31.9716 209.418 30.0263 210.605C29.9518 210.653 29.8727 210.683 29.7913 210.705Z" fill="black" fill-opacity="0.7"/>
<path d="M58.7057 227.721C58.5857 227.754 58.4547 227.761 58.3241 227.736C57.8418 227.65 57.5168 227.191 57.6034 226.709C59.095 218.209 59.6489 209.533 59.2594 200.918C59.2383 200.428 59.6143 200.015 60.1045 199.994C60.5946 199.973 61.0075 200.349 61.0286 200.839C61.4257 209.585 60.861 218.392 59.3479 227.017C59.286 227.369 59.0269 227.635 58.7057 227.721Z" fill="black" fill-opacity="0.7"/>
<path d="M58.8186 227.783C58.5144 227.864 58.1753 227.781 57.9442 227.535C51.62 220.827 45.5379 213.737 39.8669 206.468C39.5657 206.08 39.6328 205.525 40.0204 205.224C40.4079 204.923 40.963 204.99 41.2642 205.377C46.9055 212.604 52.9481 219.649 59.234 226.318C59.568 226.673 59.5538 227.237 59.198 227.571C59.0878 227.674 58.9556 227.746 58.8186 227.783Z" fill="black" fill-opacity="0.7"/>
<path d="M41.4049 205.748C41.2507 205.789 41.0808 205.789 40.9153 205.737C40.4493 205.591 40.184 205.098 40.3288 204.627C41.4656 200.954 42.8515 197.32 44.4495 193.826C44.6518 193.382 45.1777 193.186 45.6264 193.387C46.0708 193.589 46.2668 194.115 46.0656 194.563C44.4998 197.989 43.1407 201.552 42.0264 205.155C41.9325 205.455 41.6931 205.675 41.4104 205.751L41.4049 205.748Z" fill="black" fill-opacity="0.7"/>
<path d="M59.8904 200.703C59.5606 200.791 59.1963 200.683 58.9689 200.399C57.5067 198.574 52.5362 193.183 51.8707 192.498C51.5293 192.149 51.5392 191.587 51.8885 191.245C52.242 190.903 52.8005 190.914 53.1419 191.263C53.8391 191.98 58.827 197.385 60.3519 199.29C60.6563 199.672 60.5946 200.23 60.2125 200.534C60.1137 200.611 60.0049 200.668 59.8893 200.699L59.8904 200.703Z" fill="black" fill-opacity="0.7"/>
<path d="M307.472 346.99C307.327 346.99 307.182 346.96 307.048 346.895C306.673 346.719 306.449 346.334 306.474 345.918C306.903 339.476 307.442 333.015 308.075 326.553C302.068 323.763 295.976 320.803 290.438 317.046C290.084 316.806 289.924 316.37 290.034 315.954C290.144 315.543 290.508 315.243 290.932 315.218C297.109 314.807 303.306 314.261 309.492 313.59C310.286 306.983 311.179 300.391 312.182 293.849C312.252 293.389 312.626 293.038 313.09 293.003C313.549 292.968 313.978 293.253 314.118 293.699C316.113 299.985 318.438 306.152 321.078 312.177C327.08 311.366 333.052 310.429 338.984 309.382C339.024 309.337 339.069 309.292 339.109 309.247C339.478 308.836 340.112 308.806 340.521 309.182C340.656 309.302 340.745 309.452 340.795 309.613C340.89 309.738 340.955 309.883 340.985 310.049C341.08 310.595 340.72 311.115 340.177 311.211C340.122 311.221 340.062 311.231 340.002 311.241C336.43 315.203 332.842 319.395 329.37 323.463C328.771 324.159 328.177 324.86 327.574 325.561C330.228 330.51 333.107 335.344 336.2 340.042C336.469 340.453 336.405 341.004 336.04 341.335C335.676 341.665 335.122 341.685 334.743 341.37C330.622 338.024 326.022 335.289 321.272 332.845C317.031 337.658 312.676 342.382 308.155 346.725C307.966 346.905 307.716 347 307.467 347L307.472 346.99ZM309.996 327.44C309.477 332.774 309.023 338.114 308.644 343.439C312.331 339.777 315.919 335.87 319.431 331.893C316.537 330.455 313.609 329.103 310.71 327.765C310.47 327.655 310.231 327.545 309.996 327.435V327.44ZM322.639 331.277C325.723 332.88 328.751 334.613 331.63 336.561C329.724 333.481 327.913 330.35 326.192 327.169C325.014 328.537 323.832 329.909 322.639 331.277ZM310.206 325.331C310.655 325.536 311.099 325.742 311.543 325.947C314.616 327.365 317.73 328.797 320.798 330.34C322.27 328.657 323.727 326.964 325.174 325.281C323.288 321.7 321.512 318.053 319.855 314.356C317.001 314.732 314.142 315.083 311.279 315.403C310.889 318.709 310.53 322.02 310.196 325.331H310.206ZM294.061 317.006C298.596 319.816 303.46 322.19 308.29 324.444C308.589 321.504 308.914 318.564 309.253 315.629C304.189 316.175 299.12 316.635 294.061 317.006ZM321.931 314.076C323.388 317.307 324.939 320.497 326.581 323.643C327.01 323.142 327.439 322.641 327.863 322.14C330.797 318.709 333.81 315.188 336.829 311.782C331.884 312.628 326.915 313.395 321.926 314.076H321.931ZM313.539 298.292C312.81 303.291 312.142 308.32 311.533 313.355C314.033 313.069 316.527 312.763 319.022 312.438C317.006 307.8 315.175 303.081 313.539 298.287V298.292Z" fill="black" fill-opacity="0.7"/>
<path d="M157.494 370C157.386 370 157.288 370 157.18 369.978C155.998 369.805 155.175 368.711 155.348 367.519C157.266 354.269 167.65 342.633 180.603 339.22C185.176 338.018 189.154 338.104 192.417 339.491C194.422 340.347 196.113 341.669 197.359 342.73C203.31 347.812 207.851 354.388 210.496 361.744C210.897 362.871 210.312 364.117 209.195 364.518C208.068 364.919 206.822 364.334 206.421 363.218C204.025 356.566 199.917 350.618 194.541 346.024C193.468 345.114 192.178 344.095 190.726 343.478C188.363 342.481 185.328 342.449 181.708 343.402C170.392 346.381 161.309 356.544 159.64 368.126C159.488 369.209 158.556 369.978 157.494 369.978V370Z" fill="black" fill-opacity="0.7"/>
<path d="M139.22 367.335C138.071 367.335 137.117 366.436 137.052 365.276C136.553 354.93 142.536 345.861 148.465 338.353C153.169 332.395 159.001 325.732 166.577 321.506C175.313 316.642 185.848 315.385 195.484 318.061C205.12 320.737 213.498 327.248 218.463 335.927C221.725 341.625 223.405 347.952 225.031 354.074C225.822 357.053 226.646 360.141 227.622 363.055C228.001 364.193 227.394 365.417 226.256 365.796C225.118 366.176 223.893 365.569 223.514 364.431C222.484 361.376 221.649 358.223 220.836 355.179C219.211 349.058 217.671 343.272 214.691 338.072C210.29 330.379 202.855 324.605 194.314 322.232C185.773 319.859 176.43 320.975 168.68 325.287C161.765 329.133 156.302 335.406 151.869 341.029C146.449 347.909 140.965 356.132 141.387 365.06C141.442 366.251 140.52 367.27 139.328 367.324C139.296 367.324 139.263 367.324 139.22 367.324V367.335Z" fill="black" fill-opacity="0.7"/>
<path d="M122.17 368.418C122.083 368.418 122.008 368.418 121.921 368.407C120.729 368.267 119.883 367.194 120.013 366.002C123.362 336.999 139.61 312.015 162.415 300.802C167.726 298.191 172.603 296.685 177.34 296.187C187.29 295.157 196.991 298.581 205.543 301.615C210.138 303.24 215.341 305.082 219.427 308.668C222.386 311.268 224.478 314.486 226.299 317.595C234.916 332.297 240 349.058 240.997 366.067C241.062 367.259 240.151 368.288 238.959 368.353C237.756 368.429 236.737 367.508 236.672 366.316C235.707 349.989 230.83 333.89 222.56 319.784C220.923 316.999 219.07 314.117 216.577 311.929C213.119 308.895 208.534 307.27 204.101 305.699C195.983 302.817 186.77 299.556 177.795 300.499C173.579 300.943 169.167 302.308 164.333 304.692C142.84 315.266 127.514 338.949 124.327 366.501C124.197 367.606 123.265 368.418 122.181 368.418H122.17Z" fill="black" fill-opacity="0.7"/>
<path d="M302.913 223.598C302.678 223.598 302.444 223.502 302.27 223.316C301.949 222.959 301.97 222.411 302.327 222.086C310.646 214.484 318.778 206.474 326.498 198.272C326.828 197.924 327.375 197.907 327.727 198.237C328.074 198.568 328.091 199.115 327.761 199.467C320.011 207.699 311.844 215.744 303.494 223.376C303.329 223.529 303.117 223.602 302.908 223.602L302.913 223.598Z" fill="black" fill-opacity="0.7"/>
<path d="M323.133 214.997C323.033 214.997 322.929 214.979 322.829 214.94C322.382 214.771 322.152 214.271 322.321 213.819L323.402 210.942C323.767 209.968 324.149 208.96 324.496 207.956C325.547 204.957 326.394 201.858 327.015 198.746C327.11 198.276 327.566 197.968 328.035 198.063C328.504 198.159 328.812 198.615 328.717 199.085C328.078 202.279 327.21 205.456 326.133 208.529C325.777 209.551 325.395 210.568 325.022 211.55L323.94 214.427C323.81 214.775 323.48 214.992 323.129 214.992L323.133 214.997Z" fill="black" fill-opacity="0.7"/>
<path d="M323.789 215.336C323.35 215.336 322.972 215.001 322.925 214.553C322.877 214.075 323.224 213.649 323.702 213.602C329.177 213.041 334.735 213.019 340.214 213.532C340.692 213.575 341.043 214.001 340.996 214.479C340.952 214.958 340.527 215.305 340.049 215.262C334.678 214.758 329.238 214.779 323.876 215.331C323.845 215.331 323.815 215.336 323.784 215.336H323.789Z" fill="black" fill-opacity="0.7"/>
<path d="M302.869 223.876C302.431 223.876 302.057 223.546 302.005 223.103C301.953 222.624 302.296 222.194 302.774 222.142C308.179 221.551 313.676 221.403 319.104 221.694C319.581 221.72 319.95 222.129 319.924 222.607C319.898 223.085 319.49 223.459 319.012 223.429C313.676 223.142 308.275 223.289 302.965 223.868C302.934 223.868 302.9 223.872 302.869 223.872V223.876Z" fill="black" fill-opacity="0.7"/>
<path d="M313.138 242.357C313.029 242.357 312.921 242.335 312.817 242.296C312.369 242.118 312.152 241.614 312.33 241.166C314.762 235.064 316.885 228.761 318.643 222.433C318.774 221.973 319.251 221.699 319.711 221.829C320.172 221.959 320.445 222.438 320.315 222.898C318.539 229.287 316.399 235.65 313.941 241.809C313.806 242.148 313.481 242.357 313.133 242.357H313.138Z" fill="black" fill-opacity="0.7"/>
<path d="M313.468 242.996C313.246 242.996 313.029 242.913 312.86 242.744C312.517 242.405 312.517 241.857 312.851 241.514C321.683 232.556 330.471 223.316 338.981 214.062C339.307 213.71 339.854 213.684 340.21 214.01C340.561 214.336 340.587 214.884 340.262 215.24C331.739 224.511 322.933 233.764 314.089 242.739C313.919 242.913 313.694 243 313.472 243L313.468 242.996Z" fill="black" fill-opacity="0.7"/>
<path d="M33.48 321.209C32.0879 321.209 30.7371 320.953 29.575 320.08C28.3776 319.184 27.7759 317.468 28.1062 315.906C28.2301 315.318 28.4837 314.807 28.8377 314.403C28.4366 314.041 28.0237 313.679 27.6108 313.311C23.8651 309.991 19.618 306.232 17.2172 301.802C14.1086 296.066 13.2001 289.741 14.722 284.456C15.7543 280.864 17.8307 277.794 19.7183 275.264C23.2457 270.543 26.4015 267.538 29.9466 265.519C34.5653 262.882 39.8624 262.277 44.1154 263.886C48.8226 265.667 52.5683 270.204 54.1373 276.012C55.5353 281.184 55.1637 286.57 54.5561 291.624C53.7716 298.138 52.2556 306.179 47.5425 312.147C47.7018 312.26 47.8611 312.396 48.0085 312.545C49.0998 313.649 49.7251 315.686 48.7341 317.295C47.2712 319.653 44.1685 320.027 42.4992 320.229L35.7982 321.031C35.0255 321.126 34.2468 321.203 33.4741 321.203L33.48 321.209ZM31.4744 313.881C31.6042 314.029 31.6986 314.207 31.7458 314.415C31.8873 315.057 31.4862 315.692 30.8492 315.835C30.7666 315.852 30.5129 315.912 30.4068 316.405C30.2711 317.04 30.5306 317.836 30.9789 318.18C32.0879 319.012 33.7572 318.893 35.5209 318.679L42.2219 317.877C43.9856 317.664 45.9381 317.331 46.7344 316.048C47.047 315.55 46.7816 314.677 46.3451 314.231C46.0384 313.922 45.8909 314.011 45.8201 314.053C45.3128 314.368 44.6522 314.255 44.2747 313.786C43.9031 313.317 43.9326 312.64 44.3514 312.212C49.7664 306.648 51.4003 298.138 52.2143 291.345C52.7924 286.535 53.1523 281.422 51.8604 276.641C50.4919 271.57 47.283 267.633 43.2837 266.119C39.6795 264.753 35.1257 265.305 31.1087 267.597C27.8585 269.45 24.9268 272.259 21.6058 276.701C19.8421 279.058 17.9191 281.909 16.9871 285.127C15.6363 289.813 16.474 295.478 19.2877 300.668C21.4879 304.724 25.3928 308.186 29.168 311.529C29.8287 312.117 30.4834 312.693 31.1146 313.269C31.2974 313.435 31.4213 313.649 31.4744 313.881Z" fill="black" fill-opacity="0.7"/>
<path d="M22.8505 292.087C22.2489 292.087 21.7298 291.624 21.6767 291.006C21.4938 288.946 21.3051 286.82 21.7003 284.664C22.1722 282.134 23.4758 280.02 25.2808 278.88C25.8353 278.53 26.5608 278.696 26.9089 279.254C27.2569 279.807 27.0917 280.543 26.5372 280.893C25.2867 281.683 24.3724 283.221 24.0185 285.104C23.6763 286.933 23.8533 288.898 24.0185 290.793C24.0775 291.446 23.5997 292.022 22.9508 292.081C22.9154 292.081 22.88 292.081 22.8446 292.081L22.8505 292.087Z" fill="black" fill-opacity="0.7"/>
<path d="M51.3532 338.994C49.5128 338.994 48.0204 338.412 47.0235 337.266C46.1328 336.245 45.8084 334.968 45.5253 333.84C45.2775 332.86 45.0416 331.939 44.4989 331.357C43.7734 330.591 42.5759 330.431 41.1956 330.253C40.2577 330.128 39.2903 330.003 38.3524 329.659C36.6064 329.024 35.1848 327.563 34.4593 325.663C33.7337 323.762 33.8163 321.719 34.6834 320.069C34.9902 319.487 35.7039 319.273 36.2761 319.576C36.8541 319.885 37.0724 320.603 36.7656 321.179C36.217 322.224 36.1758 323.548 36.6536 324.807C37.1314 326.066 38.0457 327.022 39.1487 327.426C39.8389 327.676 40.6411 327.782 41.4905 327.895C43.0891 328.103 44.9 328.341 46.2036 329.724C47.1769 330.752 47.5132 332.082 47.8081 333.258C48.0499 334.214 48.2741 335.11 48.7931 335.698C49.9847 337.058 52.5271 336.577 53.5653 336.31C56.2846 335.603 58.8859 334.297 61.0862 332.539C61.5934 332.129 62.3366 332.218 62.7437 332.729C63.1507 333.24 63.0622 333.988 62.5549 334.398C60.0952 336.363 57.193 337.818 54.1551 338.614C53.1583 338.875 52.2145 339 51.3532 339V338.994Z" fill="black" fill-opacity="0.7"/>
<path d="M94.9405 287.762C94.4683 287.762 94.0725 287.388 94.0456 286.903C93.8927 284.226 94.1535 281.534 94.4008 278.934C94.7022 275.786 94.99 272.816 94.6212 269.823C94.5582 269.32 94.909 268.863 95.4037 268.803C95.8939 268.74 96.3482 269.096 96.4066 269.599C96.8024 272.793 96.4921 276.005 96.1907 279.112C95.9479 281.644 95.6961 284.262 95.84 286.798C95.867 287.301 95.4892 287.735 94.9945 287.762C94.9765 287.762 94.9585 287.762 94.9405 287.762Z" fill="black" fill-opacity="0.7"/>
<path d="M95.3857 287.995C94.9045 287.995 94.5043 287.607 94.4863 287.109C94.4683 286.606 94.8595 286.181 95.3542 286.168L108.86 285.724C110.047 285.688 111.234 285.647 112.408 285.647C114.319 285.647 116.235 285.738 118.129 285.93C118.623 285.98 118.983 286.428 118.934 286.931C118.884 287.433 118.443 287.799 117.949 287.749C116.118 287.566 114.256 287.493 112.408 287.475C111.261 287.475 110.087 287.516 108.954 287.552L95.4082 288C95.4082 288 95.3902 288 95.3767 288L95.3857 287.995Z" fill="black" fill-opacity="0.7"/>
<path d="M119.1 287.411C118.619 287.411 118.218 287.022 118.2 286.529L117.656 270.782C117.638 270.279 118.025 269.854 118.524 269.836C119.01 269.822 119.437 270.211 119.455 270.718L119.999 286.465C120.017 286.967 119.631 287.392 119.131 287.411C119.122 287.411 119.109 287.411 119.1 287.411Z" fill="black" fill-opacity="0.7"/>
<path d="M95.6106 270.64C95.3363 270.64 95.0665 270.517 94.8911 270.275C94.5942 269.873 94.6707 269.297 95.0664 268.995L106.584 260.185C106.98 259.879 107.546 259.962 107.843 260.364C108.14 260.766 108.064 261.342 107.668 261.643L96.1503 270.453C95.9884 270.577 95.7995 270.636 95.6106 270.636V270.64Z" fill="black" fill-opacity="0.7"/>
<path d="M118.254 271.669C118.03 271.669 117.8 271.582 117.629 271.408C114.427 268.241 111.09 265.125 107.713 262.146C107.618 262.178 107.524 262.191 107.421 262.191C106.926 262.182 106.53 261.762 106.539 261.259C106.548 260.83 106.786 260.46 107.169 260.286C107.704 260.044 108.329 260.268 108.684 260.583C112.161 263.644 115.592 266.843 118.884 270.101C119.239 270.453 119.248 271.033 118.902 271.394C118.727 271.577 118.493 271.673 118.259 271.673L118.254 271.669Z" fill="black" fill-opacity="0.7"/>
<path d="M103.139 287.164C102.644 287.164 102.24 286.753 102.24 286.25V275.502C102.24 275 102.644 274.588 103.139 274.588C103.634 274.588 104.039 275 104.039 275.502V286.25C104.039 286.753 103.634 287.164 103.139 287.164Z" fill="black" fill-opacity="0.7"/>
<path d="M103.391 276.453C102.986 276.453 102.622 276.174 102.518 275.758C102.397 275.269 102.689 274.771 103.175 274.653C105.801 273.985 108.599 273.871 111.27 274.324C111.76 274.406 112.093 274.876 112.012 275.374C111.931 275.873 111.468 276.211 110.978 276.124C108.549 275.713 106.004 275.818 103.616 276.425C103.544 276.444 103.467 276.453 103.395 276.453H103.391Z" fill="black" fill-opacity="0.7"/>
<path d="M112.143 286.698C111.661 286.698 111.266 286.314 111.243 285.82C111.104 282.498 110.861 279.135 110.51 275.822C110.456 275.32 110.816 274.872 111.311 274.817C111.805 274.762 112.246 275.128 112.3 275.63C112.651 278.98 112.903 282.384 113.042 285.747C113.065 286.25 112.678 286.679 112.183 286.698C112.17 286.698 112.156 286.698 112.143 286.698Z" fill="black" fill-opacity="0.7"/>
<path d="M280.72 269.402C280.72 269.402 280.663 269.402 280.632 269.402C269.461 268.612 258.127 268.579 246.951 269.306C246.258 269.344 245.66 268.811 245.616 268.104C245.572 267.397 246.101 266.786 246.793 266.741C258.083 266.008 269.531 266.04 280.814 266.837C281.507 266.889 282.03 267.499 281.986 268.206C281.941 268.881 281.387 269.402 280.733 269.402H280.72Z" fill="black" fill-opacity="0.7"/>
<path d="M280.644 276.473C280.594 276.473 280.537 276.473 280.487 276.46C279.794 276.37 279.31 275.728 279.398 275.02C279.958 270.514 279.927 265.957 279.31 261.463C279.24 260.962 279.467 260.467 279.889 260.197C280.311 259.927 280.846 259.933 281.262 260.223C284.536 262.466 287.936 264.613 291.361 266.599C291.777 266.844 292.029 267.307 291.997 267.795C291.966 268.284 291.67 268.714 291.223 268.901C287.936 270.296 284.901 272.43 282.452 275.072C282.288 275.245 282.093 275.361 281.885 275.425C281.772 276.036 281.249 276.473 280.651 276.473H280.644ZM282.112 263.874C282.338 266.484 282.376 269.1 282.225 271.716C283.975 270.109 285.94 268.721 288.024 267.602C286.028 266.407 284.051 265.16 282.112 263.88V263.874Z" fill="black" fill-opacity="0.7"/>
<path d="M277.534 288.372C270.752 288.372 263.958 288.16 257.227 287.742C256.245 287.684 255.792 287.015 255.703 286.463C255.603 285.833 255.943 285.222 256.522 284.978C257.019 284.772 257.586 284.868 257.97 285.209C268.788 285.858 279.75 285.968 290.568 285.537C291.28 285.505 291.846 286.058 291.878 286.771C291.903 287.478 291.361 288.076 290.669 288.108C286.305 288.282 281.916 288.372 277.528 288.372H277.534Z" fill="black" fill-opacity="0.7"/>
<path d="M256.056 293C255.823 293 255.584 292.936 255.382 292.801L245.585 286.437C245.188 286.18 244.961 285.71 245.005 285.228C245.05 284.746 245.358 284.335 245.793 284.155C248.765 282.953 251.541 281.326 254.054 279.321C254.079 279.302 254.11 279.276 254.136 279.257C254.343 279.019 254.633 278.858 254.973 278.826C255.666 278.762 256.276 279.289 256.333 279.996L257.303 291.605C257.341 292.094 257.108 292.563 256.698 292.814C256.497 292.936 256.27 293 256.044 293H256.056ZM248.935 285.563L254.589 289.233L254.028 282.535C252.417 283.686 250.71 284.695 248.935 285.556V285.563Z" fill="black" fill-opacity="0.7"/>
</g>
<defs>
<filter id="filter0_b_30_806" x="-4" y="-4" width="368" height="368" filterUnits="userSpaceOnUse" color-interpolation-filters="sRGB">
<feFlood flood-opacity="0" result="BackgroundImageFix"/>
<feGaussianBlur in="BackgroundImageFix" stdDeviation="2"/>
<feComposite in2="SourceAlpha" operator="in" result="effect1_backgroundBlur_30_806"/>
<feBlend mode="normal" in="SourceGraphic" in2="effect1_backgroundBlur_30_806" result="shape"/>
</filter>
<filter id="filter1_d_30_806" x="122" y="164" width="113.707" height="33" filterUnits="userSpaceOnUse" color-interpolation-filters="sRGB">
<feFlood flood-opacity="0" result="BackgroundImageFix"/>
<feColorMatrix in="SourceAlpha" type="matrix" values="0 0 0 0 0 0 0 0 0 0 0 0 0 0 0 0 0 0 127 0" result="hardAlpha"/>
<feOffset/>
<feGaussianBlur stdDeviation="2"/>
<feComposite in2="hardAlpha" operator="out"/>
<feColorMatrix type="matrix" values="0 0 0 0 0 0 0 0 0 0 0 0 0 0 0 0 0 0 0.25 0"/>
<feBlend mode="normal" in2="BackgroundImageFix" result="effect1_dropShadow_30_806"/>
<feBlend mode="normal" in="SourceGraphic" in2="effect1_dropShadow_30_806" result="shape"/>
</filter>
<linearGradient id="paint0_linear_30_806" x1="311.5" y1="402" x2="1.28127e-06" y2="-33.5" gradientUnits="userSpaceOnUse">
<stop stop-color="#171BFF"/>
<stop offset="1" stop-color="#4345E7"/>
</linearGradient>
<clipPath id="clip0_30_806">
<rect width="360" height="360" fill="white"/>
</clipPath>
</defs>
</svg>
